<svg id="Layer_1" data-name="Layer 1" xmlns="http://www.w3.org/2000/svg" viewBox="0 0 2048.05 76.37"><title>black_cloud</title><path d="M1708,391c0,11.67,0,23.33.05,35,0,1.74-.31,2.34-2.06,2a14.12,14.12,0,0,0-2.5,0h-2039c-4.5,0-4.5,0-4.5-4.5q0-17.75,0-35.5c3.35-2.36,7-3.37,11-2.18,2.78.81,4.42.21,6.11-2.7,3.12-5.39,8-9.62,14.21-10.71,7.32-1.28,15-1.58,22,1.73,2.75,1.3,4.42,1.11,6.21-1.17,2.12-2.69,5.19-3.86,8.26-5.19,4.6-2,9.34-2.07,14.14-1.86,9,.39,16.76,3.51,22.13,11.11,1.16,1.64,2.08,2.06,4.07,1.42,4.11-1.32,8.6-1.4,11.76,1.63,2.91,2.79,4.82,1.52,7.52.22,10.34-5,24.34-2.75,32.72,5.4,1.49,1.45,2.39,1.65,4,.71a9,9,0,0,1,2.8-.9c6.73-1.33,13.46-1.73,18.21,4.3,1.79,2.27,3.18,2.73,5.56,1.84a12.68,12.68,0,0,1,10.59.45c2.21,1.13,3.14.41,4.93-1.24,4.81-4.45,10.22-7.15,16.55-3.27,4,2.47,7.7,2.47,11.81,2.26a1.53,1.53,0,0,1,.5,0c2,.61,2.81-.7,3.61-2.23,3.45-6.59,5.55-7.66,12.63-6.12,2.05.45,3.11.06,4.46-1.68,2.82-3.65,4.76-8,8.72-10.77,10.25-7.12,21-7.87,32.37-2.92,2.1.92,3.91,2.57,6.32,2.71,1.11.06,1.9.58,3-1.1,3.9-5.78,9.22-9.46,16.77-7.89,1.39.29,2.12.11,3.12-1.36,5-7.42,13.91-7.33,19.21-1.83,1.23,1.27,2.17,1.19,3.3,0a14.33,14.33,0,0,1,7.31-3.92c7-1.61,13.61-1.31,18.51,5a4.61,4.61,0,0,0,4.26,2.06c6.44-.53,10.34,2.7,12.09,8.64.52,1.77,1.26,2.48,3,2.36,2.57-.18,5.21.15,6.74,2.34,1.28,1.83,2.29,1.43,4.09,1,6.06-1.41,11,.11,13.06,4.4,1,2,1.94,2.54,3.64,2.18s3,1.85,4.68.49c2.95-2.42,6.54-1.9,9.54-1.1a8.59,8.59,0,0,0,7-1c6.88-3.71,14.16-2.94,21.22-1.11,5.55,1.44,9.27,5.61,11.18,11,.71,2,1.24,1.9,2.66.82a22.43,22.43,0,0,1,7.86-3.94c8.67-2.32,16.65-.81,24.07,4.07.63.41.7,1.09,1.57-.12,3.1-4.3,7.46-5.47,12.56-4.16,2.3.59,4,.28,5.4-2.2a21.21,21.21,0,0,1,13.58-10.67c6.59-1.68,13.36-2.09,19.56.3,4.91,1.89,7.71,1.08,11.85-2,11.81-8.9,32.34-7.25,42.35,5.81,1.14,1.48,1.75,2,3.92,1.46,4.92-1.29,9.9-1.16,13.74,3.1.92,1,1.6,1,2.85.17,9.34-6.49,27.54-5,35.64,4.34,1.37,1.58,2.61,1.29,4.27.6,9.44-3.9,17.07-1.71,21.49,4.28,1.23,1.67,2.05,1.92,3.89,1a12.66,12.66,0,0,1,11.05-.16c2.69,1.26,4.15.45,5.91-1.4,4.44-4.69,11-6.11,16.13-2.53,3.56,2.49,6.66,2.95,10.8,2.19,2.61-.48,4-1.1,5.09-3.48,1.81-3.93,6.2-6.8,10-5.43,4.77,1.72,6.47-1.3,8.74-3.89,1.08-1.24,1.8-2.78,2.86-4,6.83-8.18,15.73-11.06,26.1-9.91a35,35,0,0,1,13.49,4.59c2.62,1.49,4.64,1.63,6.83-1.07,4.29-5.29,9.57-8.7,16.87-6.73,1.26.34,1.88-.59,2.33-1.44,3.76-7.1,13.55-7.58,18.68-2.26,1.61,1.67,2.56,1.26,4-.12,2.2-2.07,5.06-3,7.89-4,4.81-1.65,9.09.73,13.58,1.55,2.27.42,3,2.32,4,4,1.21,2.08,3.23,2,5.26,2,6.35-.08,8.9,2.93,11.05,8a23,23,0,0,1,.46,2.33c4.87-.36,8.45,3.46,13,4a14,14,0,0,0,3-.19c4.29-.47,7.84.71,10.39,4.39,1.46,2.11,6.24,3.83,8.47,2.65,3.53-1.87,7.26-1.52,10.68-.75,2.46.56,3.85-.08,5.84-1.07,7.43-3.7,15.12-2.88,22.73-.44,4.81,1.54,7.44,5.35,9.32,9.7.88,2,1.45,2.35,3.49,1a28.09,28.09,0,0,1,7.57-3.55c8.18-2.35,15.65-.48,22.87,3.38.76.4,1.06,1.88,2.54.16,3.34-3.9,7.8-5.1,12.9-3.62,2.13.62,3.81.51,5.07-2.18a16.36,16.36,0,0,1,6.33-7.51c9.65-5.5,19.76-6,30-1.86,2.3.94,3.54,1.05,5.46-.74,12.42-11.53,36.08-10.37,45.68,3.8,1.08,1.6,1.88,1.42,3.6,1.06,4.93-1,10-1.5,13.74,3.09.85,1,1.53,1,2.85.26,12.62-6.65,25.31-5.13,35.62,4.3,1.76,1.61,2.91,1.1,4.7.33,6.34-2.71,16.52-3.11,21.57,5.25,1.18,2,1.65,1,2.86.53,4.48-1.93,9.05-2.19,13.32.43,1.38.85,1.67.52,2.53-.49,7.5-8.79,15.4-6.86,22.24-1.81.61.45.82,1.57,1.84.61,1.53-1.44,3.45-1,5.23-1,2.2.06,3.42-.37,4.39-2.85a9.47,9.47,0,0,1,11.35-5.87c3.58,1,5.17-.14,6.65-2.88a25.32,25.32,0,0,1,2-2.86A29.09,29.09,0,0,1,967.35,363a33.42,33.42,0,0,1,17,4.74c3.54,2,4.72,1.94,7.32-1.22,4.08-5,8.83-8,15.53-6.61,2,.44,2.78-.53,3.82-2.09,3.7-5.55,12.16-6.93,17-2.35,2.66,2.54,4.3,1.82,6.51.15a18.76,18.76,0,0,1,2-1.47c6.91-3.91,18-2.71,21.85,2.84a5.92,5.92,0,0,0,5.6,2.94c6.49.07,9.55,2.62,11.15,8.84.16.62,0,1.75.67,1.71,4.51-.21,8.07,2.07,11.76,4.14.37.21,1.18-.55,1.8-.6,5.28-.42,10.26-.14,13.39,5.18,1,1.64,5.74,2.63,7.83,1.65,3.54-1.66,7.26-1.4,10.7-.5a6,6,0,0,0,5.52-.84c6.44-4.69,13.66-2.72,20.36-1.76,5.49.78,9.75,5.07,11.73,10.43,1.19,3.21,2.53,2.43,4.22,1.16,4.58-3.46,9.77-4.46,15.36-4.39a25.82,25.82,0,0,1,12.7,3.59c2.11,1.21,3.65,1.77,6-.39,2.89-2.7,6.67-4,10.92-2.35,2.64,1,4.59-.09,5.92-2.64,4.07-7.87,11.09-10.8,19.46-11.26,5.82-.32,11.6-.06,17,2.29,1.49.64,2.66,1,4.05-.23,7.15-6.52,15.69-8.93,25.18-8,8.45.85,16,3.57,21,11.09.95,1.42,1.75,2.61,4.29,1.62,4.27-1.66,8.87-1.74,12.33,2.21,1.54,1.76,2.55,1.28,4.45.32,11.6-5.83,24.72-4.46,34.65,4.17,1.75,1.52,2.44,2,4.71,1.16,7.76-2.85,15.27-3.15,21.1,4.2,1.34,1.68,2.65,1.73,4.7,1,4-1.47,8.21-1.59,11.94.82,1.74,1.12,2.15.95,3.27-.76,3.28-5,13.23-8.4,19.21-3.08,4,3.56,8.54.11,12.7,1.26.65.18.68-.93.95-1.5,3.31-7.12,5.62-8.24,13.69-6.76,1.5.28,2.32.09,3.54-1.47,1.92-2.46,3.23-5.34,5.42-7.59,8.63-8.91,18.86-11.27,30.82-8.28,4.4,1.1,7.84,4.12,12.28,5,1.13.22,1.51.5,2.17-.74,3.42-6.46,8.56-10,16.17-8.7,2,.33,3.22.19,4.35-1.92,2.74-5.08,11.86-7.27,16.42-2.79,2.89,2.84,4.8,2.08,7.65-.1,6.71-5.14,19-3.74,23.74,2.73a4.87,4.87,0,0,0,4.49,2.13c7.11.13,9,1.45,11.39,7.91.78,2.12,1.76,3.37,4.25,3.1,1.62-.17,3.44-.2,4.55,1.39,1.55,2.21,3.41,2.42,5.94,1.76,1.87-.49,4-.14,6-.09,2.5.06,5,1.14,5.74,3.3,1.24,3.43,3.63,3.58,6.52,3.91a6.91,6.91,0,0,0,3.72-.55,13.13,13.13,0,0,1,9.72-.19c1.85.69,2.83.7,4.24-.34,6.61-4.86,14.14-3.36,21.32-2.5,5.64.67,9,5.19,11.76,9.84,1.9,3.21,1.7,3.12,5.1,1.23a27.51,27.51,0,0,1,12.63-3.74C1695.79,384.69,1702.11,387.06,1708,391Z" transform="translate(340 -351.74)"/></svg>